<?xml version="1.0" standalone="no"?>
<!DOCTYPE svg PUBLIC "-//W3C//DTD SVG 20010904//EN"
 "http://www.w3.org/TR/2001/REC-SVG-20010904/DTD/svg10.dtd">
<svg version="1.0" xmlns="http://www.w3.org/2000/svg"
 width="500.000000pt" height="500.000000pt" viewBox="0 0 500.000000 500.000000"
 preserveAspectRatio="xMidYMid meet">
<metadata>
Created by potrace 1.16, written by Peter Selinger 2001-2019
</metadata>
<g transform="translate(0.000000,500.000000) scale(0.100000,-0.100000)"
fill="#000000" stroke="none">
<path d="M455 3699 c-48 -14 -106 -68 -131 -123 l-24 -51 0 -1030 c0 -1028 0
-1030 21 -1070 29 -55 65 -91 114 -115 40 -19 63 -20 938 -20 867 0 898 0 935
19 45 23 93 73 117 121 17 33 18 97 16 1074 -2 988 -3 1041 -21 1075 -10 20
-33 50 -52 68 -69 66 -16 63 -995 62 -488 0 -901 -5 -918 -10z m1870 -34 c36
-22 57 -45 77 -84 l28 -53 0 -1032 c0 -979 -1 -1033 -19 -1071 -20 -45 -69
-91 -118 -112 -26 -10 -198 -13 -921 -13 l-888 0 -51 25 c-51 26 -91 72 -112
128 -16 43 -15 2036 1 2090 16 52 83 125 133 142 33 12 186 14 931 12 l891 -2
48 -30z"/>
<path d="M481 3593 c-19 -10 -44 -31 -55 -46 -21 -28 -21 -36 -24 -894 l-2
-865 22 7 c13 3 33 9 46 12 12 3 22 9 22 14 0 12 -11 11 -40 -6 -14 -8 -28
-14 -32 -15 -5 0 -8 380 -8 845 0 812 1 847 19 883 28 55 72 72 186 72 l94 0
1 -885 1 -884 -108 -4 c-59 -1 288 -3 772 -2 l880 0 -720 5 -720 5 -3 800 c-2
440 0 837 3 883 l7 82 699 0 c771 0 750 2 789 -62 20 -32 20 -48 20 -870 l0
-838 -35 0 c-19 0 -35 -3 -35 -8 0 -4 18 -6 40 -4 l40 4 0 840 c0 936 4 885
-69 926 -39 22 -39 22 -748 22 l-710 0 -7 -61 c-3 -34 -6 -435 -6 -890 l0
-829 -40 0 -40 0 -2 888 -3 887 -100 3 c-80 2 -107 -1 -134 -15z"/>
<path d="M1054 3353 c-40 -4 -42 -5 -47 -46 -3 -22 -3 -45 -1 -49 3 -4 250 -8
550 -8 l544 0 0 49 c0 42 -3 49 -22 55 -24 6 -954 5 -1024 -1z m1036 -53 l0
-40 -535 0 -535 0 0 40 0 40 535 0 535 0 0 -40z"/>
<path d="M484 1716 c-58 -25 -74 -59 -74 -151 0 -97 22 -142 80 -162 26 -9
254 -12 884 -12 467 -1 846 2 843 6 -4 3 -384 6 -845 5 -555 -1 -848 2 -869 9
-18 6 -44 24 -58 40 -22 27 -25 40 -25 108 0 65 4 83 22 106 44 57 15 55 930
55 807 0 845 -1 885 -19 52 -24 73 -63 73 -134 0 -75 -16 -114 -58 -142 -20
-14 -32 -25 -26 -25 21 0 66 43 80 76 19 44 18 138 -1 178 -9 18 -33 42 -54
54 l-39 22 -858 0 c-696 -1 -865 -3 -890 -14z"/>
<path d="M2675 2322 c-6 -4 -10 -111 -10 -285 0 -270 1 -278 20 -283 11 -2
101 -3 200 -2 l180 3 0 40 0 40 -152 3 -153 3 0 244 0 245 -37 0 c-21 0 -42
-4 -48 -8z m75 -247 l0 -245 150 0 150 0 0 -35 0 -35 -185 0 -185 0 0 280 0
280 35 0 35 0 0 -245z"/>
<path d="M3241 2185 c-188 -60 -204 -330 -23 -412 47 -22 64 -25 128 -21 58 4
82 11 114 32 22 14 40 30 40 36 0 5 -10 21 -23 36 l-24 27 -30 -22 c-62 -46
-160 -36 -208 20 -47 56 -42 58 143 61 l167 3 3 34 c7 68 -49 161 -117 196
-42 21 -121 26 -170 10z m167 -24 c62 -32 95 -82 107 -164 l7 -47 -177 0 -176
0 6 -22 c27 -94 146 -137 239 -87 37 19 39 20 58 2 19 -17 19 -18 -6 -40 -31
-26 -86 -43 -141 -43 -105 0 -184 56 -211 147 -33 113 16 222 117 262 42 17
137 13 177 -8z"/>
<path d="M3266 2120 c-38 -12 -66 -38 -82 -77 -8 -18 -14 -35 -14 -38 0 -3 63
-5 140 -5 153 0 155 1 120 57 -34 56 -102 82 -164 63z m93 -16 c40 -16 71 -50
71 -79 0 -13 -19 -15 -120 -15 -132 0 -139 4 -98 55 20 26 69 54 95 55 7 0 30
-7 52 -16z"/>
<path d="M3698 2187 c-54 -16 -98 -42 -98 -60 0 -6 8 -22 18 -35 l18 -23 44
20 c92 42 190 16 190 -49 l0 -29 -82 -4 -83 -3 93 -2 c87 -2 92 -1 92 18 0 30
-27 78 -52 91 -32 17 -114 14 -160 -7 -39 -18 -41 -18 -54 1 -20 27 -18 31 24
51 54 27 186 31 232 7 64 -33 75 -67 78 -245 l4 -158 -36 0 c-34 0 -36 2 -36
32 0 28 -2 30 -12 15 -34 -44 -137 -59 -207 -31 -50 20 -71 51 -71 106 0 51
21 81 70 102 26 11 29 15 14 16 -11 0 -38 -15 -59 -33 -33 -29 -38 -39 -39
-79 -1 -55 23 -94 75 -120 46 -24 134 -23 181 1 36 18 37 18 41 -1 4 -16 13
-19 44 -16 l38 3 3 155 c2 144 1 158 -20 199 -15 29 -36 51 -58 63 -48 24
-135 31 -192 15z"/>
<path d="M4615 2190 c-14 -6 -3 -9 40 -9 79 -1 123 -25 153 -81 20 -40 22 -58
22 -192 l0 -148 -35 0 -35 0 0 140 c0 155 -9 187 -55 208 -39 18 -106 15 -139
-7 -50 -33 -55 -54 -56 -203 l0 -138 -35 0 -35 0 0 210 0 210 30 0 c27 0 30
-3 30 -30 0 -16 5 -30 10 -30 6 0 10 4 10 10 0 5 17 18 38 29 20 11 33 20 27
21 -5 0 -25 -9 -42 -20 l-33 -20 0 25 c0 22 -4 25 -40 25 l-39 0 -3 -215 c-3
-214 -3 -216 18 -221 12 -3 33 -4 45 -2 24 3 24 5 29 143 3 87 10 149 18 162
36 64 160 71 194 11 8 -15 15 -75 18 -168 l5 -145 45 0 45 0 0 155 c-1 168 -7
194 -62 244 -40 37 -124 55 -168 36z"/>
<path d="M3690 1932 c-51 -41 -7 -122 66 -122 77 0 134 45 134 107 l0 33 -89
0 c-71 0 -93 -4 -111 -18z m182 -27 c-5 -39 -27 -63 -73 -76 -63 -19 -119 7
-119 56 0 41 35 56 120 53 l75 -3 -3 -30z"/>
</g>
</svg>
